<mxfile host="65bd71144e">
    <diagram id="OLbTeJ2mhXih5Omeq2pF" name="Page-1">
        <mxGraphModel dx="1309" dy="815" grid="1" gridSize="10" guides="1" tooltips="1" connect="1" arrows="1" fold="1" page="1" pageScale="1" pageWidth="5000" pageHeight="2000" math="0" shadow="0">
            <root>
                <mxCell id="0"/>
                <mxCell id="1" parent="0"/>
                <mxCell id="4" value="" style="endArrow=none;html=1;strokeWidth=5;fontSize=49;" edge="1" parent="1" source="9">
                    <mxGeometry width="50" height="50" relative="1" as="geometry">
                        <mxPoint x="2520" y="840" as="sourcePoint"/>
                        <mxPoint x="2880" y="1000" as="targetPoint"/>
                        <Array as="points">
                            <mxPoint x="2680" y="840"/>
                        </Array>
                    </mxGeometry>
                </mxCell>
                <mxCell id="5" value="" style="endArrow=none;html=1;strokeWidth=5;fontSize=49;exitX=1.044;exitY=0.541;exitDx=0;exitDy=0;exitPerimeter=0;" edge="1" parent="1" source="10">
                    <mxGeometry width="50" height="50" relative="1" as="geometry">
                        <mxPoint x="2520" y="1000" as="sourcePoint"/>
                        <mxPoint x="2880" y="840" as="targetPoint"/>
                        <Array as="points">
                            <mxPoint x="2680" y="1000"/>
                        </Array>
                    </mxGeometry>
                </mxCell>
                <mxCell id="6" value="" style="endArrow=none;html=1;strokeWidth=5;fontSize=49;" edge="1" parent="1">
                    <mxGeometry width="50" height="50" relative="1" as="geometry">
                        <mxPoint x="2880" y="840" as="sourcePoint"/>
                        <mxPoint x="3040" y="840" as="targetPoint"/>
                    </mxGeometry>
                </mxCell>
                <mxCell id="7" value="" style="endArrow=none;html=1;strokeWidth=5;fontSize=49;" edge="1" parent="1">
                    <mxGeometry width="50" height="50" relative="1" as="geometry">
                        <mxPoint x="2880" y="999" as="sourcePoint"/>
                        <mxPoint x="3040" y="1000" as="targetPoint"/>
                    </mxGeometry>
                </mxCell>
                <mxCell id="8" value="W" style="text;html=1;align=center;verticalAlign=middle;resizable=0;points=[];autosize=1;strokeColor=none;fillColor=none;strokeWidth=5;fontSize=49;" vertex="1" parent="1">
                    <mxGeometry x="2880" y="930" width="70" height="70" as="geometry"/>
                </mxCell>
                <mxCell id="9" value="A" style="text;html=1;align=center;verticalAlign=middle;resizable=0;points=[];autosize=1;strokeColor=none;fillColor=none;strokeWidth=5;fontSize=49;" vertex="1" parent="1">
                    <mxGeometry x="2460" y="804" width="60" height="70" as="geometry"/>
                </mxCell>
                <mxCell id="10" value="B" style="text;html=1;align=center;verticalAlign=middle;resizable=0;points=[];autosize=1;strokeColor=none;fillColor=none;strokeWidth=5;fontSize=49;" vertex="1" parent="1">
                    <mxGeometry x="2456" y="962" width="60" height="70" as="geometry"/>
                </mxCell>
                <mxCell id="11" value="+" style="text;html=1;align=center;verticalAlign=middle;resizable=0;points=[];autosize=1;strokeColor=none;fillColor=none;fontSize=49;strokeWidth=5;" vertex="1" parent="1">
                    <mxGeometry x="2620" y="770" width="50" height="70" as="geometry"/>
                </mxCell>
                <mxCell id="12" value="-" style="text;html=1;align=center;verticalAlign=middle;resizable=0;points=[];autosize=1;strokeColor=none;fillColor=none;fontSize=49;strokeWidth=5;" vertex="1" parent="1">
                    <mxGeometry x="2625" y="930" width="40" height="70" as="geometry"/>
                </mxCell>
            </root>
        </mxGraphModel>
    </diagram>
</mxfile>